<svg xmlns="http://www.w3.org/2000/svg" width="24" height="24" viewBox="0 0 24 24" fill="none" stroke="currentColor" stroke-width="2" stroke-linecap="round" stroke-linejoin="round">
  <circle cx="12" cy="12" r="3"/>
  <path d="M12 1v6m0 6v6"/>
  <path d="m21 12-6-3-6 3-6-3"/>
  <path d="M21 12v7a2 2 0 01-2 2H5a2 2 0 01-2-2v-7"/>
  <path d="M12 1L9 4l6 0-3-3z"/>
  <path d="M3 12l3-1.5L9 12l3-1.5L15 12l3-1.5L21 12"/>
  <circle cx="6" cy="18" r="1" fill="white"/>
  <circle cx="12" cy="18" r="1" fill="white"/>
  <circle cx="18" cy="18" r="1" fill="white"/>
</svg>
